<svg width="20" height="20" viewBox="0 0 20 20" fill="none" xmlns="http://www.w3.org/2000/svg">
<rect width="20" height="20" fill="#9A9A9A"/>
<g id="Companies" clip-path="url(#clip0_0_1)">
<rect width="1440" height="1024" transform="translate(-703 -136)" fill="#F3F4F6"/>
<rect id="Rectangle 6325" x="-463" y="-136" width="1200" height="200" fill="#FAFAFA"/>
<rect id="Rectangle 6326" x="-422.5" y="-11.5" width="454" height="43" rx="3.5" fill="#F9FAFB" stroke="#D1D5DB"/>
<g id="heroicons-solid/magnifying-glass">
<path id="Vector (Stroke)" fill-rule="evenodd" clip-rule="evenodd" d="M8.75 3.125C5.6434 3.125 3.125 5.6434 3.125 8.75C3.125 11.8566 5.6434 14.375 8.75 14.375C10.3035 14.375 11.7089 13.7461 12.7275 12.7275C13.7461 11.7089 14.375 10.3035 14.375 8.75C14.375 5.6434 11.8566 3.125 8.75 3.125ZM1.875 8.75C1.875 4.95304 4.95304 1.875 8.75 1.875C12.547 1.875 15.625 4.95304 15.625 8.75C15.625 10.4232 15.0266 11.9575 14.0333 13.1494L17.9419 17.0581C18.186 17.3021 18.186 17.6979 17.9419 17.9419C17.6979 18.186 17.3021 18.186 17.0581 17.9419L13.1494 14.0333C11.9575 15.0266 10.4232 15.625 8.75 15.625C4.95304 15.625 1.875 12.547 1.875 8.75Z" fill="#637381"/>
</g>
</g>
<defs>
<clipPath id="clip0_0_1">
<rect width="1440" height="1024" fill="white" transform="translate(-703 -136)"/>
</clipPath>
</defs>
</svg>
